<svg xmlns="http://www.w3.org/2000/svg" viewBox="0 0 48 48" fill="none">
  <defs>
    <linearGradient id="fr-taste" x1="4" y1="4" x2="44" y2="44" gradientUnits="userSpaceOnUse">
      <stop offset="0" stop-color="#43dcea"/>
      <stop offset="0.5" stop-color="#5b8cff"/>
      <stop offset="1" stop-color="#8f7bff"/>
    </linearGradient>
  </defs>
  <path d="M22 4c1 8.4 4.6 12 13 13-8.4 1-12 4.6-13 13-1-8.4-4.6-12-13-13 8.4-1 12-4.6 13-13z" fill="url(#fr-taste)"/>
  <path d="M35.5 30c.55 4.6 2.4 6.45 7 7-4.6.55-6.45 2.4-7 7-.55-4.6-2.4-6.45-7-7 4.6-.55 6.45-2.4 7-7z" fill="url(#fr-taste)" opacity="0.82"/>
  <path d="M11 32c.4 3.3 1.7 4.6 5 5-3.3.4-4.6 1.7-5 5-.4-3.3-1.7-4.6-5-5 3.3-.4 4.6-1.7 5-5z" fill="url(#fr-taste)" opacity="0.6"/>
</svg>
